<?xml version="1.0" encoding="UTF-8" standalone="no"?>
<!-- Generator: Adobe Illustrator 13.0.0, SVG Export Plug-In . SVG Version: 6.00 Build 14948)  -->

<svg
   xmlns:dc="http://purl.org/dc/elements/1.1/"
   xmlns:cc="http://creativecommons.org/ns#"
   xmlns:rdf="http://www.w3.org/1999/02/22-rdf-syntax-ns#"
   xmlns:svg="http://www.w3.org/2000/svg"
   xmlns="http://www.w3.org/2000/svg"
   xmlns:xlink="http://www.w3.org/1999/xlink"
   xmlns:sodipodi="http://sodipodi.sourceforge.net/DTD/sodipodi-0.dtd"
   xmlns:inkscape="http://www.inkscape.org/namespaces/inkscape"
   version="1.1"
   id="Layer_1"
   x="0px"
   y="0px"
   width="480"
   height="320"
   viewBox="0 0 480 320"
   enable-background="new 0 0 500 500"
   xml:space="preserve"
   inkscape:version="0.48.1 r9760"
   sodipodi:docname="background.svg"><metadata
   id="metadata8156"><rdf:RDF><cc:Work
       rdf:about=""><dc:format>image/svg+xml</dc:format><dc:type
         rdf:resource="http://purl.org/dc/dcmitype/StillImage" /><dc:title /></cc:Work></rdf:RDF></metadata><defs
   id="defs8154"><linearGradient
     id="linearGradient3829"><stop
       style="stop-color:#0036ff;stop-opacity:1;"
       offset="0"
       id="stop3831" /><stop
       style="stop-color:#000000;stop-opacity:1;"
       offset="1"
       id="stop3833" /></linearGradient><linearGradient
     inkscape:collect="always"
     xlink:href="#linearGradient3829"
     id="linearGradient3835"
     x1="131.5"
     y1="222.5"
     x2="210.5"
     y2="276.5"
     gradientUnits="userSpaceOnUse" /><linearGradient
     gradientTransform="matrix(0.62827903,0,0,0.62827903,92.822952,22.225755)"
     id="SVGID_16_"
     gradientUnits="userSpaceOnUse"
     x1="234.2803"
     y1="358.45901"
     x2="239.1073"
     y2="491.66159"><stop
       offset="0"
       style="stop-color:#ECEFCB"
       id="stop182" /><stop
       offset="1"
       style="stop-color:#B7BA91"
       id="stop184" /></linearGradient><linearGradient
     id="SVGID_15_"
     gradientUnits="userSpaceOnUse"
     x1="209.4111"
     y1="493.68851"
     x2="245.3712"
     y2="206.0153"><stop
       offset="0"
       style="stop-color:#E5802A"
       id="stop165" /><stop
       offset="1"
       style="stop-color:#EBD300"
       id="stop167" /></linearGradient><radialGradient
     id="SVGID_14_"
     cx="234.89751"
     cy="141.2471"
     r="14.0725"
     gradientTransform="matrix(0.76656324,0.05937237,-0.05937237,0.76656324,73.19118,-25.293375)"
     gradientUnits="userSpaceOnUse"><stop
       offset="0.0121"
       style="stop-color:#FFFFFF"
       id="stop140" /><stop
       offset="1"
       style="stop-color:#C3C3C3"
       id="stop142" /></radialGradient><linearGradient
     id="SVGID_13_"
     gradientUnits="userSpaceOnUse"
     x1="247.0732"
     y1="160.957"
     x2="252.0761"
     y2="139.6413"
     gradientTransform="matrix(0.62758792,0.02946629,-0.02946629,0.62758792,101.82845,15.024044)"><stop
       offset="0"
       style="stop-color:#2E2B22"
       id="stop129" /><stop
       offset="1"
       style="stop-color:#5C636A"
       id="stop131" /></linearGradient><linearGradient
     id="SVGID_12_"
     gradientUnits="userSpaceOnUse"
     x1="245.5479"
     y1="162.3564"
     x2="248.2691"
     y2="134.64571"
     gradientTransform="matrix(0.62639419,0.04850314,-0.04850314,0.62639419,104.75711,10.760354)"><stop
       offset="0"
       style="stop-color:#E5802A"
       id="stop120" /><stop
       offset="1"
       style="stop-color:#EBD300"
       id="stop122" /></linearGradient><radialGradient
     id="SVGID_11_"
     cx="270.31451"
     cy="149.873"
     r="15.2679"
     gradientTransform="matrix(1.2151,0.1452,-0.1452,1.2151,-21.514,-87.9268)"
     gradientUnits="userSpaceOnUse"><stop
       offset="0.0121"
       style="stop-color:#FFFFFF"
       id="stop107" /><stop
       offset="1"
       style="stop-color:#C3C3C3"
       id="stop109" /></radialGradient><linearGradient
     id="SVGID_10_"
     gradientUnits="userSpaceOnUse"
     x1="243.02251"
     y1="175.77541"
     x2="245.8082"
     y2="150.0024"
     gradientTransform="matrix(0.62639419,0.04850314,-0.04850314,0.62639419,104.75711,10.760354)"><stop
       offset="0"
       style="stop-color:#FFFFFF"
       id="stop98" /><stop
       offset="1"
       style="stop-color:#C3C3C3"
       id="stop100" /></linearGradient><linearGradient
     id="SVGID_9_"
     gradientUnits="userSpaceOnUse"
     x1="236.62601"
     y1="230.0264"
     x2="242.2308"
     y2="166.0127"
     gradientTransform="matrix(0.62639419,0.04850314,-0.04850314,0.62639419,104.75711,10.760354)"><stop
       offset="0"
       style="stop-color:#E5802A"
       id="stop87" /><stop
       offset="1"
       style="stop-color:#EBD300"
       id="stop89" /></linearGradient><linearGradient
     id="SVGID_8_"
     gradientUnits="userSpaceOnUse"
     x1="240.2197"
     y1="276.25201"
     x2="240.2197"
     y2="127.5594"
     gradientTransform="matrix(0.62639419,0.04850314,-0.04850314,0.62639419,104.75711,10.760354)"><stop
       offset="0"
       style="stop-color:#E5802A"
       id="stop80" /><stop
       offset="1"
       style="stop-color:#EBD300"
       id="stop82" /></linearGradient><linearGradient
     gradientTransform="matrix(0.62827903,0,0,0.62827903,92.822952,22.225755)"
     id="SVGID_7_"
     gradientUnits="userSpaceOnUse"
     x1="232.99899"
     y1="422.90039"
     x2="232.99899"
     y2="127.0979"><stop
       offset="0"
       style="stop-color:#E5802A"
       id="stop63" /><stop
       offset="1"
       style="stop-color:#EBD300"
       id="stop65" /></linearGradient><linearGradient
     id="SVGID_6_"
     gradientUnits="userSpaceOnUse"
     x1="404.5"
     y1="265.7305"
     x2="401.81091"
     y2="226.11189"
     gradientTransform="matrix(-0.6077343,-0.15933156,-0.15933156,0.6077343,438.78863,67.038196)"><stop
       offset="0"
       style="stop-color:#E5802A"
       id="stop54" /><stop
       offset="1"
       style="stop-color:#EBD300"
       id="stop56" /></linearGradient><linearGradient
     id="SVGID_5_"
     gradientUnits="userSpaceOnUse"
     x1="374.94531"
     y1="280.082"
     x2="368.97961"
     y2="192.1873"
     gradientTransform="matrix(-0.6077343,-0.15933156,-0.15933156,0.6077343,438.78863,67.038196)"><stop
       offset="0"
       style="stop-color:#E5802A"
       id="stop47" /><stop
       offset="1"
       style="stop-color:#EBD300"
       id="stop49" /></linearGradient><linearGradient
     id="SVGID_4_"
     gradientUnits="userSpaceOnUse"
     x1="391.02051"
     y1="266.43259"
     x2="388.33151"
     y2="226.8148"
     gradientTransform="matrix(0.62639419,0.04850314,-0.04850314,0.62639419,104.75711,10.760354)"><stop
       offset="0"
       style="stop-color:#E5802A"
       id="stop38" /><stop
       offset="1"
       style="stop-color:#EBD300"
       id="stop40" /></linearGradient><linearGradient
     id="SVGID_3_"
     gradientUnits="userSpaceOnUse"
     x1="361.46481"
     y1="280.78519"
     x2="355.49921"
     y2="192.8913"
     gradientTransform="matrix(0.62639419,0.04850314,-0.04850314,0.62639419,104.75711,10.760354)"><stop
       offset="0"
       style="stop-color:#E5802A"
       id="stop31" /><stop
       offset="1"
       style="stop-color:#EBD300"
       id="stop33" /></linearGradient><linearGradient
     id="SVGID_2_"
     gradientUnits="userSpaceOnUse"
     x1="102.3818"
     y1="438.63959"
     x2="102.3818"
     y2="377.16479"
     gradientTransform="matrix(-0.54641427,0.3100557,0.3100557,0.54641427,258.73794,16.304037)"><stop
       offset="0"
       style="stop-color:#E5802A"
       id="stop24" /><stop
       offset="1"
       style="stop-color:#EBD300"
       id="stop26" /></linearGradient><linearGradient
     id="SVGID_1_"
     gradientUnits="userSpaceOnUse"
     x1="130.4951"
     y1="457.78421"
     x2="130.4951"
     y2="396.31049"><stop
       offset="0"
       style="stop-color:#E5802A"
       id="stop17" /><stop
       offset="1"
       style="stop-color:#EBD300"
       id="stop19" /></linearGradient><linearGradient
     gradientTransform="matrix(0.62827903,0,0,0.62827903,92.822952,22.225755)"
     y2="396.31049"
     x2="130.4951"
     y1="457.78421"
     x1="130.4951"
     gradientUnits="userSpaceOnUse"
     id="linearGradient4039"
     xlink:href="#SVGID_1_"
     inkscape:collect="always" /></defs><sodipodi:namedview
   pagecolor="#ffffff"
   bordercolor="#666666"
   borderopacity="1"
   objecttolerance="10"
   gridtolerance="10"
   guidetolerance="10"
   inkscape:pageopacity="0"
   inkscape:pageshadow="2"
   inkscape:window-width="1280"
   inkscape:window-height="984"
   id="namedview8152"
   showgrid="false"
   inkscape:zoom="2"
   inkscape:cx="248.85479"
   inkscape:cy="164.8677"
   inkscape:window-x="0"
   inkscape:window-y="16"
   inkscape:window-maximized="1"
   inkscape:current-layer="Layer_1"
   borderlayer="true"
   inkscape:showpageshadow="false" />
<g
   id="max_width__x2F__height"
   display="none"
   style="display:none"
   transform="translate(0,-180)">
	<path
   display="inline"
   d="M 499.001,1 V 499 H 1 V 1 h 498.001 m 1,-1 H 0 V 500 H 500.001 V 0 l 0,0 z"
   id="path8137"
   inkscape:connector-curvature="0"
   style="display:inline" />
</g>


<path
   style="fill:#1a1a1a;fill-opacity:1;stroke:none"
   d="M 0,0 480,0 480,320 0,320 z"
   id="rect3292"
   inkscape:connector-curvature="0" /><g
   style="font-size:25.1705761px;font-style:normal;font-variant:normal;font-weight:normal;font-stretch:normal;text-align:start;line-height:125%;letter-spacing:0px;word-spacing:0px;text-anchor:start;fill:#ffffff;fill-opacity:1;stroke:none;font-family:Hemi Head 426;-inkscape-font-specification:Hemi Head 426"
   id="text3603"
   transform="translate(4,-2)"><path
     d="M 22.052509,69.143731 C 21.935164,69.715734 21.788498,70.177733 21.612509,70.529731 21.436498,70.881732 21.209165,71.153065 20.930509,71.343731 20.651832,71.534398 20.299832,71.666398 19.874509,71.739731 19.463833,71.798398 18.9505,71.827731 18.334509,71.827731 L 15.034509,71.827731 15.518509,69.561731 17.784509,69.561731 C 18.136501,69.561734 18.415168,69.547067 18.620509,69.517731 18.825834,69.473734 18.979834,69.407734 19.082509,69.319731 19.199833,69.217067 19.287833,69.085068 19.346509,68.923731 19.405167,68.747735 19.463833,68.520401 19.522509,68.241731 L 20.028509,65.931731 C 20.087166,65.638404 20.116499,65.403738 20.116509,65.227731 20.116499,64.978405 20.028499,64.817072 19.852509,64.743731 19.691166,64.655739 19.353833,64.611739 18.840509,64.611731 L 15.606509,64.611731 13.406509,74.995731 10.700509,74.995731 13.384509,62.323731 20.358509,62.323731 C 21.370498,62.323741 22.074497,62.426408 22.470509,62.631731 22.866496,62.837074 23.064496,63.233073 23.064509,63.819731 23.064496,64.157072 23.013163,64.560405 22.910509,65.029731 L 22.052509,69.143731"
     style="font-size:22px;fill:#ffffff"
     id="path3699"
     inkscape:connector-curvature="0" /><path
     d="M 33.170071,71.849731 26.174071,71.849731 C 25.660734,71.849731 25.228068,71.827731 24.876071,71.783731 24.538736,71.739732 24.260069,71.666398 24.040071,71.563731 23.834736,71.446399 23.680736,71.292399 23.578071,71.101731 23.49007,70.911066 23.44607,70.661733 23.446071,70.353731 23.44607,70.0164 23.497403,69.6204 23.600071,69.165731 L 23.710071,68.637731 C 23.84207,68.065735 23.988736,67.603736 24.150071,67.251731 24.311402,66.899736 24.531402,66.628403 24.810071,66.437731 25.088735,66.24707 25.433401,66.122404 25.844071,66.063731 26.269401,65.990404 26.7974,65.953737 27.428071,65.953731 L 30.574071,65.953731 30.090071,68.241731 27.164071,68.241731 C 26.900067,68.241735 26.6874,68.329735 26.526071,68.505731 26.364734,68.667068 26.284067,68.850401 26.284071,69.055731 26.284067,69.393067 26.482067,69.561734 26.878071,69.561731 L 30.948071,69.561731 31.718071,65.953731 C 31.791395,65.587071 31.828062,65.345071 31.828071,65.227731 31.828062,64.978405 31.740062,64.817072 31.564071,64.743731 31.402729,64.670405 31.065396,64.633739 30.552071,64.633731 L 25.008071,64.633731 25.492071,62.345731 32.048071,62.345731 C 32.561394,62.345741 32.986727,62.367741 33.324071,62.411731 33.67606,62.455741 33.954726,62.536407 34.160071,62.653731 34.380059,62.756407 34.534059,62.903074 34.622071,63.093731 34.724725,63.284407 34.776059,63.53374 34.776071,63.841731 34.776059,64.179072 34.724725,64.575072 34.622071,65.029731 L 33.170071,71.849731"
     style="font-size:22px;fill:#ffffff"
     id="path3701"
     inkscape:connector-curvature="0" /><path
     d="M 45.426478,71.849731 42.742478,71.849731 43.996478,65.953731 C 44.069801,65.587071 44.106467,65.345071 44.106478,65.227731 44.106467,64.978405 44.018467,64.817072 43.842478,64.743731 43.681134,64.670405 43.343801,64.633739 42.830478,64.633731 L 40.674478,64.633731 C 40.337138,64.633739 40.065805,64.648405 39.860478,64.677731 39.669805,64.707072 39.515805,64.773072 39.398478,64.875731 39.281139,64.963738 39.185806,65.095738 39.112478,65.271731 39.053806,65.447738 38.995139,65.675071 38.936478,65.953731 L 37.682478,71.849731 34.976478,71.849731 37.000478,62.345731 39.706478,62.345731 39.464478,63.533731 C 39.963138,62.741741 40.637804,62.345741 41.488478,62.345731 L 44.326478,62.345731 C 45.338466,62.345741 46.042465,62.448408 46.438478,62.653731 46.834465,62.844407 47.032464,63.240407 47.032478,63.841731 47.032464,64.179072 46.981131,64.575072 46.878478,65.029731 L 45.426478,71.849731"
     style="font-size:22px;fill:#ffffff"
     id="path3703"
     inkscape:connector-curvature="0" /></g><g
   style="font-size:22px;font-style:normal;font-variant:normal;font-weight:normal;font-stretch:normal;text-align:start;line-height:125%;letter-spacing:0px;word-spacing:0px;text-anchor:start;fill:#ffffff;fill-opacity:1;stroke:none;font-family:Hemi Head 426;-inkscape-font-specification:Hemi Head 426"
   id="text3607"
   transform="translate(8,-2)"><path
     d="M 84.860387,71.41626 77.908387,71.41626 C 77.39505,71.41626 76.962384,71.39426 76.610387,71.35026 76.273051,71.30626 75.994385,71.232927 75.774387,71.13026 75.569052,71.012927 75.415052,70.858927 75.312387,70.66826 75.224386,70.477594 75.180386,70.228261 75.180387,69.92026 75.180386,69.582928 75.231719,69.186929 75.334387,68.73226 L 76.214387,64.59626 C 76.346385,64.024267 76.493051,63.562268 76.654387,63.21026 76.830384,62.858268 77.050384,62.586935 77.314387,62.39626 77.59305,62.205602 77.937716,62.080936 78.348387,62.02226 78.773716,61.948936 79.294382,61.912269 79.910387,61.91226 L 83.232387,61.91226 82.748387,64.20026 80.460387,64.20026 C 80.152381,64.200267 79.895715,64.214934 79.690387,64.24426 79.499715,64.258934 79.338382,64.310267 79.206387,64.39826 79.089049,64.486267 78.993715,64.618267 78.920387,64.79426 78.847049,64.970266 78.781049,65.212266 78.722387,65.52026 L 78.238387,67.80826 C 78.16505,68.17493 78.128383,68.416929 78.128387,68.53426 78.128383,68.783596 78.20905,68.944929 78.370387,69.01826 78.546383,69.091595 78.891049,69.12826 79.404387,69.12826 L 82.660387,69.12826 84.860387,58.74426 87.566387,58.74426 84.860387,71.41626"
     id="path3688"
     inkscape:connector-curvature="0"
     style="fill:#ffffff"
     sodipodi:nodetypes="cscccsccccccccccccccccscccc" /><path
     d="M 95.206918,64.20026 92.038918,64.20026 C 91.701579,64.200267 91.430246,64.214934 91.224918,64.24426 91.034246,64.2736 90.880246,64.3396 90.762918,64.44226 90.64558,64.530267 90.550247,64.662267 90.476918,64.83826 90.418247,65.014266 90.35958,65.241599 90.300918,65.52026 L 89.046918,71.41626 86.340918,71.41626 88.364918,61.91226 91.070918,61.91226 90.828918,63.10026 C 91.327579,62.308269 92.002245,61.912269 92.852918,61.91226 L 95.690918,61.91226 95.206918,64.20026"
     id="path3690"
     inkscape:connector-curvature="0"
     style="fill:#ffffff"
     sodipodi:nodetypes="cccccccccccccc" /><path
     d="M 105.67067,71.39426 102.96467,71.39426 103.20667,70.22826 C 102.69333,71.005594 102.01866,71.39426 101.18267,71.39426 L 98.344668,71.39426 C 97.816665,71.39426 97.376665,71.37226 97.024668,71.32826 96.672666,71.28426 96.394,71.203593 96.188668,71.08626 95.983333,70.968927 95.836667,70.82226 95.748668,70.64626 95.660667,70.455594 95.616667,70.213594 95.616668,69.92026 95.616667,69.758928 95.631334,69.582928 95.660668,69.39226 95.69,69.186929 95.734,68.959596 95.792668,68.71026 L 97.222668,61.89026 99.906668,61.89026 98.652668,67.80826 C 98.593997,68.101596 98.564664,68.336263 98.564668,68.51226 98.564664,68.761596 98.645331,68.930262 98.806668,69.01826 98.982664,69.091595 99.32733,69.12826 99.840668,69.12826 L 101.99667,69.12826 C 102.34866,69.12826 102.61999,69.113595 102.81067,69.08426 103.01599,69.040262 103.17733,68.974262 103.29467,68.88626 103.41199,68.783596 103.49999,68.651596 103.55867,68.49026 103.61733,68.314263 103.67599,68.08693 103.73467,67.80826 L 104.98867,61.89026 107.67267,61.89026 105.67067,71.39426"
     id="path3692"
     inkscape:connector-curvature="0"
     style="fill:#ffffff"
     sodipodi:nodetypes="cccsssscscccccccssccccccc" /><path
     d="M 123.63264,71.41626 120.94864,71.41626 122.20264,65.52026 C 122.26129,65.226933 122.29062,64.984933 122.29064,64.79426 122.29062,64.544933 122.20262,64.3836 122.02664,64.31026 121.86529,64.236934 121.52796,64.200267 121.01464,64.20026 L 119.95864,64.20026 C 119.62129,64.200267 119.34996,64.214934 119.14464,64.24426 118.95396,64.2736 118.79996,64.3396 118.68264,64.44226 118.56529,64.530267 118.46996,64.662267 118.39664,64.83826 118.33796,65.014266 118.27929,65.241599 118.22064,65.52026 L 116.96664,71.41626 114.26064,71.41626 115.64664,64.79426 C 115.64663,64.544933 115.55863,64.3836 115.38264,64.31026 115.2213,64.236934 114.88396,64.200267 114.37064,64.20026 L 113.31464,64.20026 C 112.9773,64.200267 112.70596,64.214934 112.50064,64.24426 112.30996,64.2736 112.15596,64.3396 112.03864,64.44226 111.9213,64.530267 111.82597,64.662267 111.75264,64.83826 111.69397,65.014266 111.6353,65.241599 111.57664,65.52026 L 110.32264,71.41626 107.61664,71.41626 109.64064,61.91226 112.34664,61.91226 112.10464,63.10026 C 112.6033,62.308269 113.27796,61.912269 114.12864,61.91226 L 115.86664,61.91226 C 116.83463,61.91226 117.50196,61.992936 117.86864,62.15426 118.24996,62.315602 118.47729,62.608935 118.55064,63.03426 118.69729,62.696935 118.98329,62.425602 119.40864,62.22026 119.83396,62.014936 120.28862,61.912269 120.77264,61.91226 L 122.51064,61.91226 C 123.52262,61.91226 124.22662,62.014936 124.62264,62.22026 125.03329,62.410935 125.23862,62.806935 125.23864,63.40826 125.23862,63.686934 125.17995,64.082934 125.06264,64.59626 L 123.63264,71.41626"
     id="path3694"
     inkscape:connector-curvature="0"
     style="fill:#ffffff"
     sodipodi:nodetypes="cccccccccccccccccccccccccccsccscscccc" /><path
     d="M 136.44661,68.73226 C 136.31459,69.304262 136.16793,69.766261 136.00661,70.11826 135.84526,70.455594 135.62526,70.726927 135.34661,70.93226 135.0826,71.122927 134.73793,71.254927 134.31261,71.32826 133.90193,71.386926 133.38126,71.41626 132.75061,71.41626 L 125.42461,71.41626 125.90861,69.12826 132.90461,69.12826 C 133.22726,69.12826 133.48393,69.054929 133.67461,68.90826 133.87993,68.746929 133.9826,68.570929 133.98261,68.38026 133.9826,68.013597 133.7186,67.83026 133.19061,67.83026 L 129.18661,67.83026 C 128.3506,67.83026 127.7126,67.661597 127.27261,67.32426 126.84727,66.986931 126.6346,66.532265 126.63461,65.96026 126.6346,65.886932 126.6346,65.820932 126.63461,65.76226 126.64927,65.688932 126.66394,65.615599 126.67861,65.54226 L 126.87661,64.59626 C 127.0086,64.024267 127.15527,63.562268 127.31661,63.21026 127.4926,62.843602 127.7126,62.564935 127.97661,62.37426 128.25527,62.183602 128.59994,62.058936 129.01061,62.00026 129.43593,61.926936 129.9566,61.890269 130.57261,61.89026 L 137.89861,61.89026 137.41461,64.17826 130.57261,64.17826 C 130.23527,64.178267 129.9566,64.266267 129.73661,64.44226 129.53127,64.6036 129.4286,64.786933 129.42861,64.99226 129.4286,65.358932 129.7146,65.542266 130.28661,65.54226 L 134.51061,65.54226 C 135.91859,65.54226 136.62259,66.202265 136.62261,67.52226 136.62259,67.771597 136.60059,68.013597 136.55661,68.24826 L 136.44661,68.73226"
     id="path3696"
     inkscape:connector-curvature="0"
     style="fill:#ffffff"
     sodipodi:nodetypes="ccccsccsccsscccccccccccccccsccc" /></g><g
   style="font-size:21.89388275px;font-style:normal;font-variant:normal;font-weight:normal;font-stretch:normal;text-align:start;line-height:125%;letter-spacing:0px;word-spacing:0px;text-anchor:start;fill:#ffffff;fill-opacity:1;stroke:none;font-family:Hemi Head 426;-inkscape-font-specification:Hemi Head 426"
   id="text3611"
   transform="translate(18,-2)"><path
     d="M 162.5892,71.41626 159.9052,71.41626 161.1592,65.52026 C 161.23252,65.153599 161.26919,64.9116 161.2692,64.79426 161.26919,64.544933 161.18119,64.3836 161.0052,64.31026 160.84385,64.236934 160.50652,64.200267 159.9932,64.20026 L 157.8372,64.20026 C 157.49986,64.200267 157.22852,64.214934 157.0232,64.24426 156.83252,64.2736 156.67853,64.3396 156.5612,64.44226 156.44386,64.530267 156.34853,64.662267 156.2752,64.83826 156.21653,65.014266 156.15786,65.241599 156.0992,65.52026 L 154.8452,71.41626 152.1392,71.41626 154.1632,61.91226 156.8692,61.91226 156.6272,63.10026 C 157.12586,62.308269 157.80052,61.912269 158.6512,61.91226 L 161.4892,61.91226 C 162.50119,61.91226 163.20519,62.014936 163.6012,62.22026 163.99718,62.410935 164.19518,62.806935 164.1952,63.40826 164.19518,63.745601 164.14385,64.1416 164.0412,64.59626 L 162.5892,71.41626"
     style="font-size:22px;fill:#ffffff"
     id="path3677"
     inkscape:connector-curvature="0"
     sodipodi:nodetypes="cccccccccccccccccscccc" /><path
     d="M 175.42826,68.73226 C 175.31091,69.304262 175.16425,69.766261 174.98826,70.11826 174.82692,70.455594 174.60692,70.726927 174.32826,70.93226 174.06425,71.122927 173.71958,71.254927 173.29426,71.32826 172.86892,71.386926 172.34092,71.41626 171.71026,71.41626 L 167.53026,71.41626 C 166.51826,71.41626 165.81426,71.320927 165.41826,71.13026 165.02226,70.924927 164.82426,70.521594 164.82426,69.92026 164.82426,69.582928 164.87559,69.186929 164.97826,68.73226 L 165.85826,64.59626 C 165.99026,64.024267 166.13692,63.562268 166.29826,63.21026 166.47426,62.858268 166.69426,62.586935 166.95826,62.39626 167.23692,62.205602 167.58159,62.080936 167.99226,62.02226 168.41759,61.948936 168.93825,61.912269 169.55426,61.91226 L 173.73426,61.91226 C 174.27692,61.912269 174.72425,61.941603 175.07626,62.00026 175.42825,62.044269 175.70691,62.124936 175.91226,62.24226 176.11758,62.344936 176.25691,62.498935 176.33026,62.70426 176.41825,62.894935 176.46225,63.129601 176.46226,63.40826 176.46225,63.745601 176.41091,64.1416 176.30826,64.59626 L 175.42826,68.73226 M 172.94226,67.80826 173.42626,65.52026 C 173.49958,65.153599 173.53625,64.9116 173.53626,64.79426 173.53625,64.544933 173.44825,64.3836 173.27226,64.31026 173.11092,64.236934 172.77358,64.200267 172.26026,64.20026 L 170.10426,64.20026 C 169.79625,64.200267 169.53959,64.214934 169.33426,64.24426 169.14359,64.258934 168.98225,64.310267 168.85026,64.39826 168.73292,64.486267 168.63759,64.618267 168.56426,64.79426 168.49092,64.970266 168.42492,65.212266 168.36626,65.52026 L 167.88226,67.80826 C 167.80892,68.17493 167.77226,68.416929 167.77226,68.53426 167.77226,68.783596 167.85292,68.944929 168.01426,69.01826 168.19025,69.091595 168.53492,69.12826 169.04826,69.12826 L 171.20426,69.12826 C 171.54158,69.12826 171.80558,69.113595 171.99626,69.08426 172.20158,69.054929 172.36292,68.996262 172.48026,68.90826 172.59758,68.805596 172.68558,68.673596 172.74426,68.51226 172.81758,68.336263 172.88358,68.101596 172.94226,67.80826"
     style="font-size:22px;fill:#ffffff"
     id="path3679"
     inkscape:connector-curvature="0"
     sodipodi:nodetypes="ccccsscsccccccccccccccccccccccccscsscccc" /><path
     d="M 181.80345,71.41626 179.62545,71.41626 C 178.61344,71.41626 177.90944,71.320927 177.51345,71.13026 177.11745,70.924927 176.91945,70.521594 176.91945,69.92026 176.91945,69.582928 176.97078,69.186929 177.07345,68.73226 L 179.18545,58.76626 181.89145,58.76626 181.20945,61.91226 183.82745,61.91226 183.32145,64.20026 180.74745,64.20026 179.97745,67.80826 C 179.90411,68.17493 179.86744,68.416929 179.86745,68.53426 179.86744,68.783596 179.94811,68.944929 180.10945,69.01826 180.28544,69.091595 181.65679,69.12826 181.14345,69.12826 L 182.28745,69.12826 181.80345,71.41626"
     style="font-size:22px;fill:#ffffff"
     id="path3681"
     inkscape:connector-curvature="0"
     sodipodi:nodetypes="cscsccccccccccscc" /><path
     d="M 194.41735,67.80826 188.12535,67.80826 188.60935,65.52026 192.28335,65.52026 C 192.37134,65.109599 192.41534,64.882266 192.41535,64.83826 192.41534,64.398267 192.06334,64.17826 191.35935,64.17826 L 189.20335,64.17826 C 188.91001,64.178267 188.66068,64.192934 188.45535,64.22226 188.26468,64.2516 188.10335,64.3176 187.97135,64.42026 187.85401,64.508267 187.75135,64.640267 187.66335,64.81626 187.59002,64.992266 187.52402,65.226933 187.46535,65.52026 L 186.98135,67.80826 C 186.92268,68.101596 186.89335,68.336263 186.89335,68.51226 186.89335,68.761596 186.97402,68.930262 187.13535,69.01826 187.31135,69.091595 187.65602,69.12826 188.16935,69.12826 L 193.71335,69.12826 193.22935,71.39426 186.65135,71.39426 C 186.12335,71.39426 185.68335,71.37226 185.33135,71.32826 184.97935,71.28426 184.70068,71.203593 184.49535,71.08626 184.29002,70.968927 184.14335,70.82226 184.05535,70.64626 183.96735,70.455594 183.92335,70.213594 183.92335,69.92026 183.92335,69.758928 183.93802,69.582928 183.96735,69.39226 183.99669,69.186929 184.04069,68.959596 184.09935,68.71026 L 184.95735,64.59626 C 185.16268,63.628268 185.55135,62.938935 186.12335,62.52826 186.71002,62.102936 187.56068,61.89026 188.67535,61.89026 L 192.54735,61.89026 C 193.55934,61.89026 194.26334,61.992936 194.65935,62.19826 195.05534,62.403602 195.25334,62.799602 195.25335,63.38626 195.25334,63.723601 195.20201,64.126934 195.09935,64.59626 L 194.41735,67.80826"
     style="font-size:22px;fill:#ffffff"
     id="path3683"
     inkscape:connector-curvature="0"
     sodipodi:nodetypes="cccccsccccccscsccssscsccccsscccc" /><path
     d="M 206.19182,68.73226 C 206.05981,69.304262 205.91314,69.766261 205.75182,70.11826 205.59048,70.455594 205.37048,70.726927 205.09182,70.93226 204.82781,71.122927 204.48315,71.254927 204.05782,71.32826 203.64715,71.386926 203.12648,71.41626 202.49582,71.41626 L 195.16982,71.41626 195.65382,69.12826 202.64982,69.12826 C 202.97248,69.12826 203.22915,69.054929 203.41982,68.90826 203.62515,68.746929 203.72781,68.570929 203.72782,68.38026 203.72781,68.013597 203.46381,67.83026 202.93582,67.83026 L 198.93182,67.83026 C 198.09582,67.83026 197.45782,67.661597 197.01782,67.32426 196.59249,66.986931 196.37982,66.532265 196.37982,65.96026 196.37982,65.886932 196.37982,65.820932 196.37982,65.76226 196.39449,65.688932 196.40915,65.615599 196.42382,65.54226 L 196.62182,64.59626 C 196.75382,64.024267 196.90049,63.562268 197.06182,63.21026 197.23782,62.843602 197.45782,62.564935 197.72182,62.37426 198.00049,62.183602 198.34515,62.058936 198.75582,62.00026 199.18115,61.926936 199.70182,61.890269 200.31782,61.89026 L 207.64382,61.89026 207.15982,64.17826 200.31782,64.17826 C 199.98048,64.178267 199.70182,64.266267 199.48182,64.44226 199.27648,64.6036 199.17382,64.786933 199.17382,64.99226 199.17382,65.358932 199.45982,65.542266 200.03182,65.54226 L 204.25582,65.54226 C 205.66381,65.54226 206.36781,66.202265 206.36782,67.52226 206.36781,67.771597 206.34581,68.013597 206.30182,68.24826 L 206.19182,68.73226"
     style="font-size:22px;fill:#ffffff"
     id="path3685"
     inkscape:connector-curvature="0"
     sodipodi:nodetypes="ccccsccsccsscscccccccccccscsccc" /></g><g
   style="font-size:21.89388275px;font-style:normal;font-variant:normal;font-weight:normal;font-stretch:normal;text-align:start;line-height:125%;letter-spacing:0px;word-spacing:0px;text-anchor:start;fill:#ffffff;fill-opacity:1;stroke:none;font-family:Hemi Head 426;-inkscape-font-specification:Hemi Head 426"
   id="text3619"
   transform="translate(78,-2)"><path
     d="M 243.3972,71.41626 241.2192,71.41626 C 240.20719,71.41626 239.50319,71.320927 239.1072,71.13026 238.7112,70.924927 238.5132,70.521594 238.5132,69.92026 238.5132,69.582928 238.56453,69.186929 238.6672,68.73226 L 240.7792,58.76626 243.4852,58.76626 242.8032,61.91226 245.4212,61.91226 244.9152,64.20026 242.3412,64.20026 241.5712,67.80826 C 241.49786,68.17493 241.46119,68.416929 241.4612,68.53426 241.46119,68.783596 241.54186,68.944929 241.7032,69.01826 241.87919,69.091595 242.22386,69.12826 242.7372,69.12826 L 243.8812,69.12826 243.3972,71.41626"
     style="font-size:22px;fill:#ffffff"
     id="path3656"
     inkscape:connector-curvature="0"
     sodipodi:nodetypes="cscsccccccccccscc" /><path
     d="M 256.1431,68.73226 C 256.02576,69.304262 255.87909,69.766261 255.7031,70.11826 255.54176,70.455594 255.32176,70.726927 255.0431,70.93226 254.77909,71.122927 254.43443,71.254927 254.0091,71.32826 253.58376,71.386926 253.05576,71.41626 252.4251,71.41626 L 248.2451,71.41626 C 247.2331,71.41626 246.5291,71.320927 246.1331,71.13026 245.7371,70.924927 245.5391,70.521594 245.5391,69.92026 245.5391,69.582928 245.59044,69.186929 245.6931,68.73226 L 246.5731,64.59626 C 246.7051,64.024267 246.85177,63.562268 247.0131,63.21026 247.1891,62.858268 247.4091,62.586935 247.6731,62.39626 247.95177,62.205602 248.29643,62.080936 248.7071,62.02226 249.13243,61.948936 249.6531,61.912269 250.2691,61.91226 L 254.4491,61.91226 C 254.99176,61.912269 255.43909,61.941603 255.7911,62.00026 256.14309,62.044269 256.42176,62.124936 256.6271,62.24226 256.83242,62.344936 256.97176,62.498935 257.0451,62.70426 257.13309,62.894935 257.17709,63.129601 257.1771,63.40826 257.17709,63.745601 257.12576,64.1416 257.0231,64.59626 L 256.1431,68.73226 M 253.6571,67.80826 254.1411,65.52026 C 254.21443,65.153599 254.25109,64.9116 254.2511,64.79426 254.25109,64.544933 254.16309,64.3836 253.9871,64.31026 253.82576,64.236934 253.48843,64.200267 252.9751,64.20026 L 250.8191,64.20026 C 250.5111,64.200267 250.25443,64.214934 250.0491,64.24426 249.85843,64.258934 249.6971,64.310267 249.5651,64.39826 249.44776,64.486267 249.35243,64.618267 249.2791,64.79426 249.20577,64.970266 249.13977,65.212266 249.0811,65.52026 L 248.5971,67.80826 C 248.52377,68.17493 248.4871,68.416929 248.4871,68.53426 248.4871,68.783596 248.56777,68.944929 248.7291,69.01826 248.9051,69.091595 249.24977,69.12826 249.7631,69.12826 L 251.9191,69.12826 C 252.25643,69.12826 252.52043,69.113595 252.7111,69.08426 252.91643,69.054929 253.07776,68.996262 253.1951,68.90826 253.31243,68.805596 253.40043,68.673596 253.4591,68.51226 253.53243,68.336263 253.59843,68.101596 253.6571,67.80826"
     style="font-size:22px;fill:#ffffff"
     id="path3658"
     inkscape:connector-curvature="0"
     sodipodi:nodetypes="ccccsscsccccccccccccccccccccccccscsscccc" /><path
     d="M 267.73229,71.39426 265.02629,71.39426 265.26829,70.22826 C 264.75495,71.005594 264.08028,71.39426 263.24429,71.39426 L 260.40629,71.39426 C 259.87829,71.39426 259.43829,71.37226 259.08629,71.32826 258.73429,71.28426 258.45562,71.203593 258.25029,71.08626 258.04496,70.968927 257.89829,70.82226 257.81029,70.64626 257.72229,70.455594 257.67829,70.213594 257.67829,69.92026 257.67829,69.758928 257.69296,69.582928 257.72229,69.39226 257.75162,69.186929 257.79562,68.959596 257.85429,68.71026 L 259.28429,61.89026 261.96829,61.89026 260.71429,67.80826 C 260.65562,68.101596 260.62629,68.336263 260.62629,68.51226 260.62629,68.761596 260.70695,68.930262 260.86829,69.01826 261.04429,69.091595 261.38895,69.12826 261.90229,69.12826 L 264.05829,69.12826 C 264.41028,69.12826 264.68162,69.113595 264.87229,69.08426 265.07762,69.040262 265.23895,68.974262 265.35629,68.88626 265.47362,68.783596 265.56162,68.651596 265.62029,68.49026 265.67895,68.314263 265.73761,68.08693 265.79629,67.80826 L 267.05029,61.89026 269.73429,61.89026 267.73229,71.39426"
     style="font-size:22px;fill:#ffffff"
     id="path3660"
     inkscape:connector-curvature="0"
     sodipodi:nodetypes="cccsssscscccccscssccccccc" /><path
     d="M 278.30226,71.41626 272.67026,71.41626 C 272.12759,71.41626 271.68026,71.39426 271.32826,71.35026 270.97626,71.291593 270.69759,71.210927 270.49226,71.10826 270.28692,70.990927 270.14026,70.836927 270.05226,70.64626 269.97893,70.455594 269.94226,70.213594 269.94226,69.92026 269.94226,69.582928 269.99359,69.186929 270.09626,68.73226 L 270.97626,64.59626 C 271.10826,64.024267 271.25492,63.562268 271.41626,63.21026 271.59226,62.858268 271.81959,62.586935 272.09826,62.39626 272.39159,62.205602 272.74359,62.080936 273.15426,62.02226 273.56492,61.948936 274.07825,61.912269 274.69426,61.91226 L 280.32626,61.91226 279.84226,64.20026 275.22226,64.20026 C 274.88492,64.200267 274.61359,64.214934 274.40826,64.24426 274.21759,64.2736 274.06359,64.3396 273.94626,64.44226 273.82892,64.530267 273.73359,64.662267 273.66026,64.83826 273.60159,65.014266 273.54292,65.241599 273.48426,65.52026 L 273.00026,67.80826 C 272.92692,68.17493 272.89026,68.416929 272.89026,68.53426 272.89026,68.783596 272.97092,68.944929 273.13226,69.01826 273.30826,69.091595 273.65292,69.12826 274.16626,69.12826 L 278.78626,69.12826 278.30226,71.41626"
     style="font-size:22px;fill:#ffffff"
     id="path3662"
     inkscape:connector-curvature="0"
     sodipodi:nodetypes="cscccsccccccccccccccscscc" /><path
     d="M 290.39779,71.41626 287.71379,71.41626 288.96779,65.52026 C 289.04111,65.153599 289.07778,64.9116 289.07779,64.79426 289.07778,64.544933 288.98978,64.3836 288.81379,64.31026 288.65245,64.236934 288.31511,64.200267 287.80179,64.20026 L 285.64579,64.20026 C 285.30845,64.200267 285.03712,64.214934 284.83179,64.24426 284.64112,64.2736 284.48712,64.3396 284.36979,64.44226 284.25245,64.530267 284.15712,64.662267 284.08379,64.83826 284.02512,65.014266 283.96645,65.241599 283.90779,65.52026 L 282.65379,71.41626 279.94779,71.41626 282.65379,58.72226 285.35979,58.72226 284.43579,63.10026 C 284.93445,62.308269 285.60912,61.912269 286.45979,61.91226 L 289.29779,61.91226 C 290.30978,61.91226 291.01378,62.014936 291.40979,62.22026 291.80578,62.410935 292.00378,62.806935 292.00379,63.40826 292.00378,63.745601 291.95244,64.1416 291.84979,64.59626 L 290.39779,71.41626"
     style="font-size:22px;fill:#ffffff"
     id="path3664"
     inkscape:connector-curvature="0"
     sodipodi:nodetypes="cccccccccccccccccscccc" /><path
     d="M 303.14885,68.73226 C 303.01684,69.304262 302.87018,69.766261 302.70885,70.11826 302.54751,70.455594 302.32751,70.726927 302.04885,70.93226 301.78484,71.122927 301.44018,71.254927 301.01485,71.32826 300.60418,71.386926 300.08351,71.41626 299.45285,71.41626 L 292.12685,71.41626 292.61085,69.12826 299.60685,69.12826 C 299.92951,69.12826 300.18618,69.054929 300.37685,68.90826 300.58218,68.746929 300.68484,68.570929 300.68485,68.38026 300.68484,68.013597 300.42084,67.83026 299.89285,67.83026 L 295.88885,67.83026 C 295.05285,67.83026 294.41485,67.661597 293.97485,67.32426 293.54952,66.986931 293.33685,66.532265 293.33685,65.96026 293.33685,65.886932 293.33685,65.820932 293.33685,65.76226 293.35152,65.688932 293.36618,65.615599 293.38085,65.54226 L 293.57885,64.59626 C 293.71085,64.024267 293.85752,63.562268 294.01885,63.21026 294.19485,62.843602 294.41485,62.564935 294.67885,62.37426 294.95752,62.183602 295.30218,62.058936 295.71285,62.00026 296.13818,61.926936 296.65885,61.890269 297.27485,61.89026 L 304.60085,61.89026 304.11685,64.17826 297.27485,64.17826 C 296.93751,64.178267 296.65885,64.266267 296.43885,64.44226 296.23352,64.6036 296.13085,64.786933 296.13085,64.99226 296.13085,65.358932 296.41685,65.542266 296.98885,65.54226 L 301.21285,65.54226 C 302.62084,65.54226 303.32484,66.202265 303.32485,67.52226 303.32484,67.771597 303.30284,68.013597 303.25885,68.24826 L 303.14885,68.73226"
     style="font-size:22px;fill:#ffffff"
     id="path3666"
     inkscape:connector-curvature="0"
     sodipodi:nodetypes="ccccsccsccsscscccccccccccscsccc" /><path
     d="M 313.64423,73.50626 C 313.52688,74.078257 313.38022,74.532923 313.20423,74.87026 313.04289,75.222256 312.82289,75.493589 312.54423,75.68426 312.28022,75.889589 311.93555,76.021588 311.51023,76.08026 311.08489,76.153588 310.55689,76.19026 309.92623,76.19026 L 303.37023,76.19026 303.85423,73.92426 309.39823,73.92426 C 309.72089,73.92426 309.98489,73.909591 310.19023,73.88026 310.39555,73.850924 310.55689,73.784924 310.67423,73.68226 310.79155,73.579591 310.87955,73.440258 310.93823,73.26426 311.01155,73.102925 311.07755,72.875592 311.13623,72.58226 L 311.37823,71.39426 307.11023,71.39426 C 306.09823,71.39426 305.39423,71.298927 304.99823,71.10826 304.60223,70.902927 304.40423,70.506927 304.40423,69.92026 304.40423,69.582928 304.45556,69.179595 304.55823,68.71026 L 306.01023,61.89026 308.69423,61.89026 307.44023,67.80826 C 307.38156,68.101596 307.35222,68.336263 307.35223,68.51226 307.35222,68.761596 307.43289,68.930262 307.59423,69.01826 307.77022,69.091595 308.11489,69.12826 308.62823,69.12826 L 311.86223,69.12826 313.40223,61.89026 316.10823,61.89026 313.64423,73.50626"
     style="font-size:22px;fill:#ffffff"
     id="path3668"
     inkscape:connector-curvature="0"
     sodipodi:nodetypes="ccccsccscccccscsccccccscccc" /><path
     d="M 326.49154,71.41626 323.80754,71.41626 325.06154,65.52026 C 325.13486,65.153599 325.17153,64.9116 325.17154,64.79426 325.17153,64.544933 325.08353,64.3836 324.90754,64.31026 324.7462,64.236934 324.40886,64.200267 323.89554,64.20026 L 321.73954,64.20026 C 321.4022,64.200267 321.13087,64.214934 320.92554,64.24426 320.73487,64.2736 320.58087,64.3396 320.46354,64.44226 320.3462,64.530267 320.25087,64.662267 320.17754,64.83826 320.11887,65.014266 320.0602,65.241599 320.00154,65.52026 L 318.74754,71.41626 316.04154,71.41626 318.06554,61.91226 320.77154,61.91226 320.52954,63.10026 C 321.0282,62.308269 321.70287,61.912269 322.55354,61.91226 L 325.39154,61.91226 C 326.40353,61.91226 327.10753,62.014936 327.50354,62.22026 327.89953,62.410935 328.09753,62.806935 328.09754,63.40826 328.09753,63.745601 328.04619,64.1416 327.94354,64.59626 L 326.49154,71.41626"
     style="font-size:22px;fill:#ffffff"
     id="path3670"
     inkscape:connector-curvature="0"
     sodipodi:nodetypes="cccccccccccccccccscccc" /><path
     d="M 333.5886,71.41626 331.4106,71.41626 C 330.3986,71.41626 329.6946,71.320927 329.2986,71.13026 328.9026,70.924927 328.7046,70.521594 328.7046,69.92026 328.7046,69.582928 328.75594,69.186929 328.8586,68.73226 L 330.9706,58.76626 333.6766,58.76626 332.9946,61.91226 335.6126,61.91226 335.1066,64.20026 332.5326,64.20026 331.7626,67.80826 C 331.68927,68.17493 331.6526,68.416929 331.6526,68.53426 331.6526,68.783596 331.73327,68.944929 331.8946,69.01826 332.0706,69.091595 332.41527,69.12826 332.9286,69.12826 L 334.0726,69.12826 333.5886,71.41626"
     style="font-size:22px;fill:#ffffff"
     id="path3672"
     inkscape:connector-curvature="0"
     sodipodi:nodetypes="cscsccccccccscscc" /><path
     d="M 345.78451,71.41626 343.10051,71.41626 344.35451,65.52026 C 344.42783,65.153599 344.4645,64.9116 344.46451,64.79426 344.4645,64.544933 344.3765,64.3836 344.20051,64.31026 344.03917,64.236934 343.70183,64.200267 343.18851,64.20026 L 341.03251,64.20026 C 340.69517,64.200267 340.42384,64.214934 340.21851,64.24426 340.02784,64.2736 339.87384,64.3396 339.75651,64.44226 339.63917,64.530267 339.54384,64.662267 339.47051,64.83826 339.41184,65.014266 339.35317,65.241599 339.29451,65.52026 L 338.04051,71.41626 335.33451,71.41626 338.04051,58.72226 340.74651,58.72226 339.82251,63.10026 C 340.32117,62.308269 340.99584,61.912269 341.84651,61.91226 L 344.68451,61.91226 C 345.6965,61.91226 346.4005,62.014936 346.79651,62.22026 347.1925,62.410935 347.3905,62.806935 347.39051,63.40826 347.3905,63.745601 347.33916,64.1416 347.23651,64.59626 L 345.78451,71.41626"
     style="font-size:22px;fill:#ffffff"
     id="path3674"
     inkscape:connector-curvature="0"
     sodipodi:nodetypes="cccccccccccccccccscccc" /></g><g
   style="font-size:21.89388275px;font-style:normal;font-variant:normal;font-weight:normal;font-stretch:normal;text-align:start;line-height:125%;letter-spacing:0px;word-spacing:0px;text-anchor:start;fill:#ffffff;fill-opacity:1;stroke:none;font-family:Hemi Head 426;-inkscape-font-specification:Hemi Head 426"
   id="text3596"
   transform="translate(0,12)"><path
     d="M 324.6112,30.73226 C 324.49385,31.304262 324.34719,31.766261 324.1712,32.11826 324.00985,32.455594 323.78985,32.726927 323.5112,32.93226 323.24719,33.122927 322.90252,33.254927 322.4772,33.32826 322.06652,33.386926 321.52142,33.590113 320.9152,33.41626 L 313.9412,33.41626 316.6252,20.74426 319.3312,20.74426 317.1312,31.12826 320.3652,31.12826 C 320.67319,31.12826 320.92252,31.120929 321.1132,31.10626 321.31852,31.076929 321.47986,31.018262 321.5972,30.93026 321.72919,30.842262 321.82452,30.710262 321.8832,30.53426 321.95652,30.358263 322.02986,30.116263 322.1032,29.80826 L 322.5872,27.52026 C 322.66052,27.153599 322.69719,26.9116 322.6972,26.79426 322.69719,26.544933 322.60919,26.3836 322.4332,26.31026 322.27185,26.236934 321.93452,26.200267 321.4212,26.20026 L 319.1332,26.20026 319.6172,23.91226 322.9392,23.91226 C 323.95119,23.91226 324.65519,24.014936 325.0512,24.22026 325.44718,24.410935 325.64518,24.806935 325.6452,25.40826 325.64518,25.745601 325.59385,26.1416 325.4912,26.59626 L 324.6112,30.73226"
     style="font-size:22px;fill:#ffffff"
     id="path3649"
     inkscape:connector-curvature="0"
     sodipodi:nodetypes="ccccsccccsccccccccccscccc" /><path
     d="M 336.36367,30.71026 C 336.24632,31.282262 336.09965,31.744261 335.92367,32.09626 335.74766,32.448261 335.52032,32.719594 335.24167,32.91026 334.96299,33.100927 334.61099,33.232927 334.18567,33.30626 333.77499,33.364926 333.26166,33.39426 332.64567,33.39426 L 329.34567,33.39426 329.82967,31.12826 332.09567,31.12826 C 332.44766,31.12826 332.72632,31.113595 332.93167,31.08426 333.13699,31.040262 333.29099,30.974262 333.39367,30.88626 333.51099,30.783596 333.59899,30.651596 333.65767,30.49026 333.71632,30.314263 333.77499,30.08693 333.83367,29.80826 L 334.33967,27.49826 C 334.39832,27.204933 334.42766,26.970266 334.42767,26.79426 334.42766,26.544933 334.33966,26.3836 334.16367,26.31026 334.00232,26.222267 333.66499,26.178267 333.15167,26.17826 L 329.91767,26.17826 327.71767,36.56226 325.01167,36.56226 327.69567,23.89026 334.66967,23.89026 C 335.68166,23.89026 336.38565,23.992936 336.78167,24.19826 337.17765,24.403602 337.37565,24.799602 337.37567,25.38626 337.37565,25.723601 337.32432,26.126934 337.22167,26.59626 L 336.36367,30.71026"
     style="font-size:22px;fill:#ffffff"
     id="path3651"
     inkscape:connector-curvature="0"
     sodipodi:nodetypes="ccccsccsccccccccccccscccc" /><path
     d="M 353.48723,33.41626 350.80323,33.41626 352.05723,27.52026 C 352.11588,27.226933 352.14521,26.984933 352.14523,26.79426 352.14521,26.544933 352.05721,26.3836 351.88123,26.31026 351.71988,26.236934 351.38255,26.200267 350.86923,26.20026 L 349.81323,26.20026 C 349.47588,26.200267 349.20455,26.214934 348.99923,26.24426 348.80855,26.2736 348.65455,26.3396 348.53723,26.44226 348.41988,26.530267 348.32455,26.662267 348.25123,26.83826 348.19255,27.014266 348.13388,27.241599 348.07523,27.52026 L 346.82123,33.41626 344.11523,33.41626 345.50123,26.79426 C 345.50122,26.544933 345.41322,26.3836 345.23723,26.31026 345.07589,26.236934 344.73855,26.200267 344.22523,26.20026 L 343.16923,26.20026 C 342.83189,26.200267 342.56056,26.214934 342.35523,26.24426 342.16456,26.2736 342.01056,26.3396 341.89323,26.44226 341.77589,26.530267 341.68056,26.662267 341.60723,26.83826 341.54856,27.014266 341.48989,27.241599 341.43123,27.52026 L 340.17723,33.41626 337.47123,33.41626 339.49523,23.91226 342.20123,23.91226 341.95923,25.10026 C 342.45789,24.308269 343.13256,23.912269 343.98323,23.91226 L 345.72123,23.91226 C 346.68922,23.91226 347.35655,23.992936 347.72323,24.15426 348.10455,24.315602 348.33188,24.608935 348.40523,25.03426 348.55188,24.696935 348.83788,24.425602 349.26323,24.22026 349.68855,24.014936 350.14321,23.912269 350.62723,23.91226 L 352.36523,23.91226 C 353.37721,23.91226 354.08121,24.014936 354.47723,24.22026 354.88788,24.410935 355.09321,24.806935 355.09323,25.40826 355.09321,25.686934 355.03454,26.082934 354.91723,26.59626 L 353.48723,33.41626"
     style="font-size:22px;fill:#ffffff"
     id="path3653"
     inkscape:connector-curvature="0"
     sodipodi:nodetypes="cccccccccccccccccccccccccccsccscscccc" /></g></svg>